<svg xmlns="http://www.w3.org/2000/svg" xml:space="preserve" style="fill-rule:evenodd;clip-rule:evenodd;stroke-linecap:round;stroke-linejoin:round" viewBox="0 0 500 375"><path d="M92.761 401.912h396.128c6.137 0 11.111-4.975 11.111-11.111V263.664c0-6.137-4.974-11.111-11.111-11.111H92.761c-6.136 0-11.111 4.974-11.111 11.111v127.137c0 6.136 4.975 11.111 11.111 11.111" style="fill:#ffdd2d;fill-rule:nonzero;stroke:#003860;stroke-width:6.95px" transform="matrix(1.12889 0 0 1.1527 -83.224 -240.444)"/><path d="M92.761 401.912h396.128c6.137 0 11.111-4.975 11.111-11.111V263.664c0-6.137-4.974-11.111-11.111-11.111H92.761c-6.136 0-11.111 4.974-11.111 11.111v127.137c0 6.136 4.975 11.111 11.111 11.111" style="fill:#003860;fill-rule:nonzero;stroke:#1d1d1b;stroke-width:.08px" transform="matrix(1.07384 0 0 1.00171 -67.745 -191.326)"/><path d="M166.835 272.75c.367-2.142-1.825-3.812-3.793-2.89-7.425 3.479-14.777 7.066-22.237 10.533-13.498 6.273-27.348 12.149-39.937 19.673-2.594 1.55-5.133 3.169-7.95 4.574-.904.45-1.836.879-2.45 1.633-.646.795-.937 1.951-.817 2.995.122 1.048.66 1.983 1.308 2.831 1.368 1.791 3.23 3.192 5.335 3.866 1.14.365 2.35.517 3.54.435 1.176-.08 2.333-.39 3.43-.817 2.676-1.04 4.999-2.78 7.35-4.464a233.006 233.006 0 0 1 9.34-6.339c-.576 3.417-1.159 6.834-1.702 10.262-2.664 16.823-4.354 33.898-6.986 50.576-.36 2.28-.738 4.553-.682 6.871.037 1.537.265 3.093.714 4.574a14.591 14.591 0 0 0 1.742 3.757c1.689 2.584 4.267 4.659 7.079 5.88 1.582.688 3.239 1.106 5.063 1.09 1.431-.014 2.965-.294 3.866-1.253.546-.58.86-1.41 1.035-2.232.221-1.041.22-2.072.225-3.104.032-7.298.331-14.667.848-21.997.853-12.088 2.3-24.068 4.195-35.991 1.667-10.49 3.682-20.936 6.113-31.291 5.296-3.006 10.613-5.972 20.06-11.499a11.054 11.054 0 0 0 5.311-7.673" style="fill:#ffdd2d;fill-rule:nonzero;stroke:#1d1d1b;stroke-width:.08px" transform="matrix(1.07384 0 0 1.00171 -67.745 -191.326)"/><path d="M216.795 276.44c-.099.879-.179 1.761-.26 2.639-.603 6.529-1.307 12.835-2.275 19.24-1.648 11.42-3.238 22.975-4.629 34.305-1.321 10.766-2.462 21.328-3.811 32.672-.171 1.44-.346 2.893.027 4.26.319 1.171 1.04 2.279 1.868 3.196 1.341 1.485 2.963 2.47 4.618 3.494 1.937 1.197 3.92 2.447 6.171 2.813 1.116.181 2.298.145 3.384-.147 1.754-.471 3.254-1.608 4.749-2.733 5.49-4.135 10.915-8.121 16.344-11.914 4.272-2.985 8.547-5.849 13.542-8.779 1.357-.796 2.767-1.596 3.769-2.785.721-.855 1.232-1.911.951-2.747-.148-.44-.515-.819-.934-1.167-1.116-.926-2.6-1.629-4.104-2.125-1.538-.508-3.097-.798-4.611-.559-1.095.172-2.166.623-3.18 1.062-3.529 1.527-6.369 2.917-9.506 4.552-4.695 2.447-10.053 5.443-14.665 8.496 1.873-11.878 4.007-23.825 5.99-35.575 2.479-14.691 4.725-29.076 8.531-44.289.646-2.583 1.337-5.19.726-7.623-.337-1.342-1.07-2.632-1.997-3.721-1.813-2.133-4.365-3.5-7.079-4.266-1.851-.522-3.779-.764-5.626-.363a9.15 9.15 0 0 0-3.451 1.578 2.693 2.693 0 0 0-2.717-.256c-7.426 3.479-14.778 7.066-22.238 10.533-13.498 6.272-27.348 12.15-39.937 19.673-2.593 1.55-5.133 3.169-7.949 4.574-.904.451-1.837.879-2.451 1.633-.646.795-.937 1.951-.816 2.995.122 1.048.659 1.983 1.307 2.831 1.369 1.791 3.231 3.191 5.336 3.866a9.504 9.504 0 0 0 3.539.435c1.176-.08 2.333-.389 3.43-.816 2.676-1.041 4.999-2.781 7.35-4.465a231.928 231.928 0 0 1 9.34-6.338c-.575 3.416-1.158 6.833-1.701 10.261-2.664 16.824-4.354 33.898-6.987 50.576-.36 2.28-.737 4.553-.681 6.872a17.26 17.26 0 0 0 .713 4.573 14.546 14.546 0 0 0 1.743 3.757c1.688 2.585 4.266 4.658 7.078 5.881 1.582.687 3.24 1.105 5.063 1.089 1.432-.014 2.965-.294 3.867-1.253.545-.58.859-1.409 1.034-2.232.221-1.041.22-2.072.225-3.104.033-7.298.331-14.667.848-21.997.853-12.088 2.3-24.068 4.195-35.99 1.668-10.491 3.683-20.936 6.114-31.291 5.238-2.974 10.497-5.908 19.753-11.321" style="fill:#ffdd2d;fill-rule:nonzero;stroke:#1d1d1b;stroke-width:.08px" transform="matrix(1.07384 0 0 1.00171 -67.745 -191.326)"/><path d="M283.982 376.55c-6.686 0-11.921-1.772-16.351-5.397-.725-.564-.725-1.289-.242-1.934l4.591-6.282c.564-.725 1.209-.806 1.934-.322 3.14 2.336 6.685 3.464 10.471 3.464 3.867 0 5.8-1.209 6.203-3.061.564-2.497-2.256-3.142-5.478-3.867-7.894-1.612-14.177-6.364-12.405-15.063 1.692-8.137 8.458-11.6 18.205-11.6 5.558 0 9.827 1.208 14.177 3.706.805.483.886 1.208.322 1.933l-4.752 6.364c-.484.725-1.128.805-1.934.403-2.497-1.451-5.558-2.176-8.941-2.176-2.981 0-4.833.645-5.155 2.659-.484 2.416 2.094 3.141 5.961 4.027 6.202 1.37 13.936 5.236 12.243 14.66-1.61 8.538-8.78 12.486-18.849 12.486M331.184 332.568c11.599 0 18.043 7.894 16.19 18.688l-1.611 9.264c-1.61 9.505-9.021 16.029-18.607 16.029-3.061 0-5.8-.644-7.813-1.772l-2.658 14.741c-.081.806-.645 1.289-1.451 1.289h-9.343c-.967 0-1.37-.645-1.208-1.531l9.102-51.956c.161-.644.482-1.127 1.128-1.45 4.671-2.094 10.874-3.302 16.271-3.302" style="fill:#fff;fill-rule:nonzero;stroke:#1d1d1b;stroke-width:.08px" transform="matrix(1.07384 0 0 1.00171 -67.745 -191.326)"/><path d="M335.211 350.371c.967-5.236-.806-7.25-5.155-7.25-1.934 0-3.948.483-5.318 1.209l-3.625 20.459c1.29.967 3.304 1.531 5.156 1.531 4.109 0 6.606-2.416 7.491-7.411z" style="fill:#003861;fill-rule:nonzero;stroke:#1d1d1b;stroke-width:.08px" transform="matrix(1.07384 0 0 1.00171 -67.745 -191.326)"/><path d="M365.818 376.55c-11.277 0-16.997-6.444-15.386-15.225 1.369-7.813 7.975-11.276 18.286-11.276 2.416 0 4.832.241 6.847.644l.16-1.289c.725-3.946-.403-6.122-5.477-6.122-3.545 0-7.169.725-9.586 1.852-.886.403-1.53.243-1.853-.643l-2.496-6.606c-.242-.725-.242-1.289.241-1.611 3.867-2.336 9.908-3.786 16.432-3.786 10.956 0 16.594 7.25 14.419 19.333l-3.624 20.38c-.162.724-.484 1.288-1.209 1.53-4.591 1.611-10.552 2.819-16.754 2.819" style="fill:#fff;fill-rule:nonzero;stroke:#1d1d1b;stroke-width:.08px" transform="matrix(1.07384 0 0 1.00171 -67.745 -191.326)"/><path d="M367.348 366.48c1.852 0 4.107-.322 5.558-.644l1.128-7.007c-1.531-.323-3.384-.564-5.156-.564-3.947 0-6.042 1.289-6.445 3.705-.564 3.061 1.37 4.51 4.915 4.51" style="fill:#003861;fill-rule:nonzero;stroke:#1d1d1b;stroke-width:.08px" transform="matrix(1.07384 0 0 1.00171 -67.745 -191.326)"/><path d="M408.507 376.55c-10.874 0-17.48-7.25-15.466-18.687l1.772-9.989c1.772-10.15 9.827-15.386 20.057-15.386 5.075 0 9.022 1.531 12.244 3.866.645.484.725 1.208.242 1.934l-4.752 6.122c-.564.644-1.128.724-1.934.242a12.312 12.312 0 0 0-6.203-1.692c-4.269 0-6.847 2.256-7.571 6.202l-1.692 9.505c-.967 4.915 1.209 7.412 5.156 7.412 2.255 0 4.994-.806 7.571-2.337.805-.484 1.531-.321 1.933.483l3.143 6.928c.402.806.24 1.449-.646 1.933-4.349 2.417-9.021 3.464-13.854 3.464M450.632 332.488c10.311 0 17.642 5.478 15.466 17.319l-1.369 7.813c-.161.806-.644 1.209-1.45 1.209h-22.394l-.242 1.128c-.805 4.268 1.128 6.363 5.559 6.363 3.545 0 7.249-1.289 10.472-3.223.805-.563 1.45-.482 1.853.403l3.303 6.203c.322.805.24 1.531-.484 1.932-4.35 2.982-9.827 4.915-16.836 4.915-10.552 0-17.882-6.444-16.029-16.916l2.094-11.679c1.933-10.553 10.31-15.467 20.057-15.467" style="fill:#fff;fill-rule:nonzero;stroke:#1d1d1b;stroke-width:.08px" transform="matrix(1.07384 0 0 1.00171 -67.745 -191.326)"/><path d="M454.499 348.759c.563-3.222-.806-6.041-4.915-6.041-3.462 0-6.122 2.094-6.846 5.88l-.404 2.175h11.762z" style="fill:#003861;fill-rule:nonzero;stroke:#1d1d1b;stroke-width:.08px" transform="matrix(1.07384 0 0 1.00171 -67.745 -191.326)"/><path d="M268.373 324.848c-.967 0-1.45-.644-1.29-1.531l9.586-54.775c.162-.805.645-1.289 1.451-1.289h11.357c.806 0 1.369.323 1.611 1.209l4.028 13.774c1.289 4.994 3.302 13.131 4.028 16.513h.241c1.853-3.302 6.525-11.519 9.827-16.674l9.022-13.935c.403-.645.886-.887 1.692-.887h11.76c.967 0 1.45.645 1.289 1.531l-9.585 54.775c-.162.806-.645 1.289-1.531 1.289h-9.827c-.887 0-1.369-.644-1.289-1.531l1.772-10.229c1.047-6.283 3.303-17.239 5.074-25.535l-.402-.081c-1.933 3.706-6.283 11.117-9.505 16.352l-5.156 8.055c-.403.725-.886.967-1.611.967h-7.33c-.805 0-1.369-.403-1.61-1.209l-2.417-8.216c-1.289-4.993-3.142-11.921-3.867-15.547h-.402c-1.047 8.459-2.578 17.964-3.706 24.972l-1.853 10.713c-.08.886-.644 1.289-1.53 1.289zM348.517 325.895c-11.277 0-16.997-6.442-15.385-15.225 1.369-7.813 7.974-11.275 18.285-11.275 2.416 0 4.833.241 6.847.643l.161-1.289c.725-3.945-.403-6.122-5.477-6.122-3.545 0-7.17.725-9.586 1.852-.887.404-1.531.243-1.853-.642l-2.497-6.607c-.242-.724-.242-1.289.241-1.611 3.867-2.336 9.908-3.786 16.433-3.786 10.955 0 16.594 7.25 14.419 19.334l-3.625 20.38c-.162.723-.484 1.288-1.209 1.529-4.59 1.611-10.552 2.819-16.754 2.819M415.291 282.961c1.208 0 1.53.805.725 1.691l-15.788 16.191 10.39 22.394c.403.967 0 1.611-1.047 1.611h-10.229c-.806 0-1.37-.322-1.611-1.128l-6.042-14.257-3.544 3.383-1.934 10.713c-.08.806-.644 1.289-1.45 1.289h-9.344c-.886 0-1.368-.644-1.288-1.531l9.747-54.775c.161-.806.644-1.289 1.449-1.289h9.345c.966 0 1.449.645 1.288 1.531l-4.833 27.387 11.438-12.485c.403-.564.967-.725 1.692-.725zM436.636 281.834c10.311 0 17.641 5.477 15.466 17.318l-1.369 7.814c-.162.806-.645 1.209-1.45 1.209h-22.394l-.241 1.127c-.806 4.269 1.127 6.363 5.558 6.363 3.544 0 7.249-1.289 10.472-3.222.805-.564 1.45-.483 1.853.403l3.302 6.203c.322.805.241 1.531-.484 1.932-4.349 2.981-9.827 4.915-16.835 4.915-10.552 0-17.882-6.444-16.03-16.917l2.094-11.679c1.934-10.553 10.311-15.466 20.058-15.466" style="fill:#fffffc;fill-rule:nonzero;stroke:#1d1d1b;stroke-width:.08px" transform="matrix(1.07384 0 0 1.00171 -67.745 -191.326)"/><path d="M440.502 298.105c.564-3.222-.806-6.041-4.914-6.041-3.463 0-6.122 2.094-6.847 5.88l-.403 2.175h11.761z" style="fill:#003861;fill-rule:nonzero;stroke:#1d1d1b;stroke-width:.08px" transform="matrix(1.07384 0 0 1.00171 -67.745 -191.326)"/><path d="M456.207 324.848c-.966 0-1.45-.644-1.288-1.531l6.363-36.57c.161-.725.564-1.208 1.208-1.53 4.672-2.175 9.827-3.383 14.902-3.383 2.175 0 4.35.241 6.685.724.887.161 1.29.806 1.128 1.611l-1.45 7.895c-.079.886-.724 1.288-1.61 1.208a27.36 27.36 0 0 0-4.672-.403c-2.095 0-3.867.403-5.236.967l-5.236 29.723c-.161.806-.644 1.289-1.45 1.289z" style="fill:#fffffc;fill-rule:nonzero;stroke:#1d1d1b;stroke-width:.08px" transform="matrix(1.07384 0 0 1.00171 -67.745 -191.326)"/><path d="M350.047 315.826c1.853 0 4.108-.322 5.558-.644l1.128-7.007c-1.531-.323-3.383-.564-5.155-.564-3.948 0-6.042 1.289-6.445 3.705-.564 3.061 1.37 4.51 4.914 4.51" style="fill:#003861;fill-rule:nonzero;stroke:#1d1d1b;stroke-width:.08px" transform="matrix(1.07384 0 0 1.00171 -67.745 -191.326)"/></svg>